<?xml version="1.0" encoding="utf-8"?>
<!-- Svg Vector Icons : http://www.onlinewebfonts.com/icon -->
<!DOCTYPE svg PUBLIC "-//W3C//DTD SVG 1.1//EN" "http://www.w3.org/Graphics/SVG/1.1/DTD/svg11.dtd">
<svg version="1.1" xmlns="http://www.w3.org/2000/svg" xmlns:xlink="http://www.w3.org/1999/xlink" x="0px" y="0px" viewBox="0 0 1000 1000" enable-background="new 0 0 1000 1000" xml:space="preserve">
<metadata> Svg Vector Icons : http://www.onlinewebfonts.com/icon </metadata>
<g><g transform="translate(0.000000,512.000000) scale(0.100000,-0.100000)"><path d="M4690.6,4999c-258.7-49.8-530.9-161-741.7-302.8c-126.5-86.2-375.6-331.6-469.5-463.8c-588.4-827.9-412-1987.4,394.8-2596.8c141.8-105.4,475.3-287.5,530.9-287.5c11.5,0,30.7,36.4,42.2,82.4c11.5,44.1,28.8,109.2,38.3,143.7l15.3,61.3l-143.7,67.1c-392.9,180.1-693.8,513.6-831.8,916.1c-199.3,586.4-55.6,1207.4,385.2,1642.4c467.6,465.7,1174.8,588.4,1772.7,306.6c197.4-92,291.3-157.2,444.6-308.6c222.3-220.4,369.9-486.8,437-789.6c40.2-184,30.6-574.9-17.3-751.3c-82.4-293.2-281.7-601.8-515.5-795.3c-116.9-97.7-368-241.5-475.3-274.1c-28.8-9.6-28.8-23-1.9-155.2c19.2-97.7,36.4-145.7,55.6-145.7c13.4,0,78.6,21.1,143.7,47.9c414,168.6,822.2,574.9,1002.3,1002.3c115,276,134.2,379.5,132.2,751.3c0,310.5-3.8,348.8-53.7,505.9c-203.1,663.1-701.4,1142.2-1368.4,1316.6C5269.4,5023.9,4893.8,5037.4,4690.6,4999z"/><path d="M5869.3,4184.5c-124.6-72.8-354.6-304.7-479.1-484.9l-95.8-138l84.3-92c65.2-72.8,90.1-88.2,115-74.8c72.8,40.2,364.1,348.8,438.9,463.8c101.6,159.1,128.4,228.1,120.7,308.6C6045.6,4253.5,5997.7,4259.3,5869.3,4184.5z"/><path d="M4859.3,3439c-208.9-128.4-245.3-373.7-80.5-552c36.4-40.2,38.3-57.5,24.9-277.9c-36.4-651.6-166.7-1247.6-331.5-1527.4c-86.2-141.8-281.7-335.4-431.2-419.7c-274.1-157.2-856.7-277.9-1552.4-322l-205.1-13.4l-67.1,59.4c-128.4,111.2-285.5,124.6-414,36.4c-95.8-63.3-138-134.2-149.5-241.5c-11.5-126.5,3.8-178.2,76.7-262.5c138-155.2,352.6-164.8,507.9-21.1c40.2,36.4,57.5,36.4,268.3,24.9C3151.7-116,3753.5-242.5,4016-393.9c208.9-120.8,423.5-362.2,507.9-576.9c118.8-295.1,197.4-695.7,243.4-1251.5l30.7-379.5l-59.4-61.3c-80.5-82.4-115-214.6-84.3-318.1c47.9-159.1,172.5-251.1,339.2-251.1c251,0,413.9,270.2,299,496.4c-21.1,38.3-51.8,82.4-67.1,95.8c-40.3,32.6-40.3,182.1-1.9,553.9c97.7,929.5,268.3,1347.3,663.1,1615.6c289.4,195.5,824.1,316.2,1652,373.7l187.8,11.5l61.3-57.5c216.6-208.9,569.2-49.8,569.2,254.9c0,251.1-270.2,414-496.4,299c-38.3-21.1-82.4-51.7-95.8-67.1c-32.6-40.2-182.1-40.2-553.8-1.9C6668.4,399.5,6333,474.2,6059,602.6c-216.6,101.6-442.7,323.9-544.3,536.6c-149.5,314.3-249.1,822.2-293.2,1498.7l-13.4,207l59.4,61.3c210.8,218.5,49.8,569.2-258.7,569.2C4953.2,3475.4,4893.8,3462,4859.3,3439z"/><path d="M4441.5,2793.2c-268.3-239.6-452.3-504-460-665c-3.8-70.9,1.9-80.5,38.3-86.2c24.9-3.8,86.2,17.3,139.9,46c109.2,59.4,394.8,346.9,505.9,509.8l74.7,111.2l-90.1,93.9l-88.1,95.8L4441.5,2793.2z"/><path d="M1612.7,1990.2c-684.2-149.5-1220.8-630.5-1425.8-1284c-141.8-452.3-109.2-941,92-1366.4C390-894.1,497.3-1041.7,683.2-1220c233.8-222.3,456.1-354.5,745.5-446.5c891.2-279.8,1847.5,139.9,2261.5,990.8c47.9,95.8,86.2,185.9,86.2,197.4c0,19.2-212.7,82.4-272.1,82.4c-13.4,0-46-49.8-72.8-111.2c-116.9-270.2-369.9-559.6-626.7-711c-626.7-371.8-1406.7-279.8-1922.2,228C254-370.9,246.3,629.4,867.2,1250.4c310.5,310.5,676.5,461.9,1117.3,461.9c266.4,0,475.3-47.9,709.1-162.9c316.2-153.3,548.1-389,712.9-720.6l92-182.1l138,26.8c92,19.2,139.9,36.4,139.9,55.6c0,51.7-97.8,262.6-185.9,406.3c-166.7,268.3-484.9,557.7-762.8,695.7c-128.4,63.2-310.5,124.6-473.4,159.1C2187.7,2026.6,1779.5,2024.6,1612.7,1990.2z"/><path d="M7758.9,1978.7c-283.6-42.2-528.9-134.2-768.5-291.3c-208.9-136.1-333.5-253-475.3-440.8c-103.5-136.1-285.6-471.5-285.6-525.1c0-19.2,203.1-82.4,262.6-82.4c23,0,49.8,36.4,82.4,111.2c164.8,383.3,521.3,711,925.7,849c412,141.8,808.7,115,1211.2-78.6c415.9-199.3,714.8-563.4,837.5-1011.9c53.7-201.2,57.5-586.4,7.6-780c-155.2-592.2-617.1-1040.6-1205.4-1169.1c-115-24.9-207-30.7-392.9-23c-285.6,9.6-412.1,40.3-645.9,155.2c-318.1,157.1-550,390.9-712.9,722.5l-92,182.1l-138-26.8c-92-19.2-139.9-36.4-139.9-55.6c0-13.4,21.1-78.6,47.9-143.7c153.3-375.6,523.2-770.4,900.7-958.2c139.9-70.9,364.1-141.8,532.8-168.6c231.9-38.3,617.1-15.3,826,46c666.9,199.3,1159.5,718.7,1328.1,1406.7c49.8,203.2,46,636.3-9.6,854.8c-51.8,203.1-180.2,486.8-299,651.6c-161,226.2-444.6,467.6-701.4,596C8533.2,1961.4,8109.6,2030.4,7758.9,1978.7z"/><path d="M913.2,1171.8c-17.2-9.6-30.7-32.6-30.7-49.8c0-113.1,287.5-437,544.3-615.2l141.8-97.7l88.2,88.2c47.9,49.8,88.2,92,88.2,95.8c0,19.2-230,258.7-343.1,356.5C1217.9,1110.5,989.9,1214,913.2,1171.8z"/><path d="M6934.8,1145c-92-92,218.5-471.5,578.8-709.1l86.2-57.5l90.1,92l90.1,92l-116.9,130.3C7504,869,7341.1,1007,7210.8,1076C7095.8,1137.3,6959.7,1171.8,6934.8,1145z"/><path d="M2358.3-200.4c-26.8-28.8-69-65.2-93.9-82.4l-46-28.7l109.2-124.6c243.4-272.1,515.5-460,676.5-465.7c70.9-1.9,72.8,0,70.9,67.1c-1.9,84.3-76.7,197.4-231.9,352.6c-105.4,105.4-396.7,335.4-423.5,335.4C2411.9-148.6,2385.1-171.6,2358.3-200.4z"/><path d="M8376-244.5c-36.4-38.3-80.5-72.8-95.8-78.6c-24.9-7.7-23-15.3,3.8-55.6c57.5-86.2,329.6-346.9,440.8-421.6c214.6-145.7,398.6-182.1,398.6-78.6c0,115-291.3,440.8-542.4,611.4l-138,92L8376-244.5z"/><path d="M4232.6-1160.5c-413.9-176.3-814.5-584.5-992.7-1008.1c-105.4-258.7-138-456.1-128.4-785.8c7.7-239.6,17.3-316.2,59.4-460C3513.9-4558.5,4773-5108.5,5836.7-4577.6c180.2,90.1,276,157.1,435,308.6c172.5,161,283.6,306.6,389,505.9c496.4,941,109.2,2100.5-860.5,2571.9c-95.8,47.9-185.9,86.2-197.4,86.2c-21.1,0-82.4-195.5-82.4-260.6c0-26.8,30.7-49.8,111.2-84.3c383.3-164.8,711-521.3,849-925.7c141.8-412,115-808.8-78.6-1211.2c-199.3-415.9-563.5-714.8-1011.9-837.5c-201.2-53.7-586.5-57.5-780-7.6c-387.1,101.6-734,346.9-942.9,668.8c-195.5,299-262.6,550-251,933.3c7.7,216.6,17.2,283.6,61.3,412c149.5,437,410.1,739.8,812.6,941c193.6,97.7,189.7,90.1,155.2,262.5C4418.5-1085.8,4412.7-1083.9,4232.6-1160.5z"/><path d="M5873.1-1825.5c-138-67.1-396.7-327.7-538.5-538.5l-67.1-99.6l82.4-95.8c61.3-70.9,90.1-92,111.2-78.6c67.1,34.5,377.5,360.3,444.6,467.6c82.4,124.6,143.7,297.1,126.5,345C6016.8-1787.2,5949.7-1787.2,5873.1-1825.5z"/><path d="M4403.1-3245.7c-241.5-220.4-373.7-394.8-438.9-576.9c-38.3-109.2-24.9-176.3,38.3-176.3c113.1,0,437,287.5,615.2,544.3l97.8,141.8l-46,30.7c-26.8,15.3-63.2,55.6-80.5,88.2c-19.2,30.7-42.1,57.5-49.8,57.5C4531.5-3136.4,4470.2-3186.2,4403.1-3245.7z"/></g></g>
</svg>